<svg xmlns="http://www.w3.org/2000/svg" width="16" height="16" viewBox="0 0 16 16">
  <path fill="currentColor" d="m 10.190294,7.9500565 5.236546,5.2365465 c 0.578413,0.578413 0.578413,1.516206 0,2.094618 -0.578413,0.578413 -1.516205,0.578413 -2.094618,0 L 8.0956753,10.044675 2.8591289,15.281221 c -0.5784129,0.578413 -1.5162057,0.578413 -2.0946186,0 -0.57841285,-0.578412 -0.57841285,-1.516205 1e-8,-2.094618 L 6.0010567,7.9500565 0.7645103,2.71351 c -0.57841292,-0.5784129 -0.57841285,-1.5162057 1e-8,-2.09461854 0.57841289,-0.57841285 1.51620559,-0.57841292 2.09461859,0 L 8.0956753,5.8554379 13.332222,0.61889146 c 0.578413,-0.57841292 1.516205,-0.57841285 2.094618,0 0.578413,0.57841284 0.578413,1.51620564 0,2.09461854 z" />
</svg>
