<svg xmlns="http://www.w3.org/2000/svg" width="32" height="32"><path fill="hsla(var(--secondary-light), .1)" d="M3 6h27v21H3z"/><path fill="hsl(var(--contrast))" d="M3.606 5.648c-.592.163-1.066.666-1.171 1.248-.026.134-.035 2.944-.035 9.552 0 8 .006 9.386.048 9.533.157.589.65 1.066 1.226 1.184.122.026 3.654.035 12.352.035 13.277 0 12.31.013 12.707-.179.234-.115.573-.454.685-.685.195-.406.182.333.182-9.958V6.98l-.077-.243a1.606 1.606 0 0 0-1.155-1.091c-.237-.064-24.531-.061-24.762.003zM27.2 16.4v8.4H4.8V8h22.4v8.4z"/><path fill="hsl(var(--alert-light))" d="M9.088 11.264c-1.651.349-2.416 2.269-1.469 3.68a2.402 2.402 0 0 0 2.915.864c.525-.224.966-.64 1.216-1.152.182-.374.23-.595.23-1.056 0-.56-.096-.883-.384-1.318a2.367 2.367 0 0 0-2.509-1.018z"/><path fill="hsla(var(--success), .75)" d="M19.056 14.704c-.157.074-.163.08-.861.989a1126.4 1126.4 0 0 1-2.442 3.139c-.224.285-1.152 1.472-1.283 1.648-.099.131-.32.413-.643.826l-.234.294-.099-.125c-.138-.17-.672-.813-1.318-1.587l-.653-.781a8.205 8.205 0 0 0-.214-.256c-.054-.064-.39-.467-.749-.893-.355-.429-.694-.806-.749-.842a.548.548 0 0 0-.47-.013c-.051.029-.915.87-1.917 1.875L5.6 20.802v3.197h20.8v-2.4l-3.427-3.427c-2.192-2.192-3.466-3.443-3.536-3.472a.442.442 0 0 0-.381.003z"/></svg>