<svg xmlns="http://www.w3.org/2000/svg" width="32" height="32"><path fill="hsl(var(--alert))" d="M20.672 5.014c-1.798.221-3.222 1.581-3.498 3.344-.131.826-.022 1.44.397 2.282.195.39 3.507 5.84 3.549 5.84.013 0 .16-.227.326-.506.17-.275.502-.826.746-1.222s.502-.822.576-.944c.074-.125.47-.778.886-1.456 1.302-2.134 1.44-2.458 1.446-3.344.006-.752-.096-1.181-.432-1.834a3.97 3.97 0 0 0-3.565-2.173c-.192.003-.387.01-.432.013zm.742 2.573c.282.061.506.186.714.394.576.589.576 1.437.003 2.019-.65.656-1.696.55-2.211-.227a1.406 1.406 0 0 1 .192-1.792 1.41 1.41 0 0 1 1.302-.394z"/><path fill="hsla(var(--success-dark), .25)" d="M4.8 13.872v4.403l1.12 1.12-1.123 1.123.013 2.291c.01 2.083.016 2.314.067 2.486.246.832.854 1.44 1.709 1.702.173.054.778.058 10.4.064l10.214.01-.01-7.814c-.006-7.398-.01-7.827-.064-8.003-.189-.621-.608-1.165-1.12-1.456-.134-.077-.182-.07-.182.026 0 .134-.211.682-.432 1.126-.176.355-1.885 3.219-2.4 4.026-.038.061-.16.256-.266.435l-.195.323.064.173c.118.31.147.573.096.877a1.585 1.585 0 0 1-1.44 1.315 1.607 1.607 0 0 1-1.731-1.594c0-.182.077-.534.147-.672.045-.086.035-.109-.31-.672a61.78 61.78 0 0 0-.477-.778l-1.555-2.544c-.557-.918-.848-1.606-.957-2.25l-.019-.118H4.8v4.4zm5.075.554.522.525-.557.557a17.9 17.9 0 0 1-.57.557c-.01 0-.909-.89-1.046-1.037l-.077-.086.557-.557c.464-.464.563-.55.605-.518.026.022.282.272.566.56zm-2.24 2.169.563.563-.093.096a27.26 27.26 0 0 1-1.03 1.018c-.029 0-1.088-1.066-1.098-1.104-.006-.022 1.043-1.117 1.088-1.133.003-.003.259.25.57.56zm4.458.048c.301.301.547.557.547.566 0 .013-.25.272-.554.576l-.557.554-1.13-1.136.554-.554c.301-.304.56-.554.573-.554.01 0 .266.246.566.547zm6.704 2.154.56.56-.56.56c-.307.31-.563.563-.57.563-.016 0-1.091-1.088-1.101-1.114-.006-.026 1.072-1.126 1.104-1.126.006 0 .262.25.566.557zm-4.432.118c.301.301.547.554.547.557 0 .006-.253.262-.56.57l-.56.56-.506-.506a50.987 50.987 0 0 1-.56-.57c-.054-.061-.045-.074.496-.611.304-.301.563-.547.576-.547.01 0 .266.246.566.547zm2.173 2.151.557.557-.566.566-.566.563-.557-.557a14.801 14.801 0 0 1-.557-.57c0-.026 1.091-1.114 1.117-1.114.01 0 .269.25.573.554z"/></svg>