<svg xmlns="http://www.w3.org/2000/svg" width="24" height="24"><path d="M12 18a6 6 0 10-6-6 6 6 0 006 6zm0-10a4 4 0 11-4 4 4 4 0 014-4zM12 4a1 1 0 001-1V2a1 1 0 00-2 0v1a1 1 0 001 1zM11 21v1a1 1 0 002 0v-1a1 1 0 00-2 0zM18.36 6.64a1 1 0 00.71-.3l.7-.7a1 1 0 00-1.4-1.42l-.71.7a1 1 0 00.7 1.72zM4.93 17.66l-.7.7a1 1 0 101.4 1.42l.71-.7a1 1 0 00-1.41-1.42zM22 11h-1a1 1 0 000 2h1a1 1 0 000-2zM2 13h1a1 1 0 000-2H2a1 1 0 000 2zM17.66 17.66a1 1 0 000 1.41l.7.7a1 1 0 001.42-1.4l-.7-.71a1 1 0 00-1.42 0zM4.93 6.34a1 1 0 001.41-1.41l-.7-.7a1 1 0 00-1.42 1.4z"></path></svg>