<svg xmlns="http://www.w3.org/2000/svg" viewBox="17 -18 100 100"><path d="M104.5 36.2h8.3c4.2 0 4.2 0 4.2-4.2s0-4.2-4.2-4.2h-8.3c-4.2 0-4.2 0-4.2 4.2s0 4.2 4.2 4.2zM67-1.3c4.2 0 4.2 0 4.2-4.2v-8.3c0-4.2 0-4.2-4.2-4.2s-4.2 0-4.2 4.2v8.3c0 4.2 0 4.2 4.2 4.2zm29.5 68.6c2.9 2.9 2.9 2.9 5.8 0 3-2.9 3-2.9 0-5.9l-5.8-5.8c-3-3-3-3-5.9 0-2.9 2.9-2.9 2.9 0 5.8zM37.6 8.4c2.9 2.9 2.9 2.9 5.8 0 3-2.9 3-2.9 0-5.9l-5.8-5.8c-3-3-3-3-5.9 0-2.9 2.9-2.9 2.9 0 5.8zM67 57a25 25 0 0 0 24.1-31.6l-7.4 7.5a16.8 16.8 0 0 1-15.8 15.8l-7.5 7.5c2.1.5 4.4.8 6.6.8zm-14.6-4.7 6.1-6A16.6 16.6 0 0 1 50.3 32c0-9.2 7.5-16.7 16.7-16.7 6.1 0 11.4 3.3 14.3 8.2l6-6a25 25 0 1 0-34.9 34.8zM67 82c4.2 0 4.2 0 4.2-4.2v-8.3c0-4.2 0-4.2-4.2-4.2s-4.2 0-4.2 4.2v8.3c0 4.2 0 4.2 4.2 4.2zM21.2 36.2h8.3c4.2 0 4.2 0 4.2-4.2s0-4.2-4.2-4.2h-8.3c-4.2 0-4.2 0-4.2 4.2s0 4.2 4.2 4.2zm10.5 31.1c2.9 2.9 2.9 2.9 5.9 0l64.8-64.8c3-3 3-2.9 0-5.8-2.9-3-2.8-2.9-5.8 0L31.7 61.4c-3 3-2.9 3 0 5.9z"/></svg>