<svg xmlns="http://www.w3.org/2000/svg" width="56.014896" height="63.999996" viewBox="0 0 56.014896 63.999996">
  <path fill="currentColor" d="m 29.304323,63.718843 c -0.181726,-2.98317 -0.138371,-5.97532 -0.192978,-8.96299 -1.652075,-0.13589 -3.417255,0.17709 -4.974101,-0.41498 0.777124,-3.18068 2.3019,-6.2184 3.403511,-9.32878 1.430151,-2.1441 0.804121,-3.53349 -1.812275,-2.9551 -5.018832,-0.11948 -10.309143,-0.0798 -14.772351,-2.74125 C 3.4881394,35.400963 -0.95363957,26.656593 0.17395743,18.313563 1.2607854,8.0056132 11.063041,-0.63778679 21.49491,0.03702321 c 4.641864,-0.11311 9.167189,1.50138999 12.843596,4.30095999 0.826648,0.86894 1.796908,-0.48817 2.692246,-0.68393 4.210482,-2.38797 9.381722,-2.41952 13.973552,-1.29489 3.19495,0.92482 5.82077,4.13705 4.77879,7.56091 -0.33154,3.4170498 -3.8964,4.8492198 -6.92267,4.3771698 -3.64019,0.0879 -3.61069,-4.2985798 -5.58835,-6.2335098 -1.99205,-0.7046 -6.685197,-0.20826 -3.53341,2.5224398 1.88321,3.43997 2.96158,7.32546 2.63249,11.26488 0.12892,5.40453 -3.23469,9.99959 -4.73087,14.97856 1.06586,1.15396 6.08977,-0.83769 3.69134,1.99773 -2.45227,3.55726 -5.063227,7.01325 -7.367394,10.66716 1.492892,0.54882 5.852444,-0.49042 3.563754,2.23411 -2.558244,4.07959 -4.962146,8.28766 -7.803787,12.1714 -0.149903,0.23764 -0.415974,4e-4 -0.419874,-0.18117 z m -1.46691,-38.09778 c 4.978676,-1.34553 7.598007,-7.83592 4.654049,-12.17447 -2.223089,-3.7254598 -7.366558,-5.2236798 -11.167391,-3.03083 -2.925215,1.4067 -4.740578,4.734 -4.287691,7.95588 -0.01656,4.13747 4.108882,7.79783 8.200601,7.54187 0.872294,-0.0117 1.754596,-0.0629 2.600432,-0.29245 z" />
</svg>
