<svg xmlns="http://www.w3.org/2000/svg" width="32" height="32" viewBox="0 0 32 32">
  <rect width="27" height="21" x="3" y="6" fill="hsla(var(--secondary-light), .1)"/>
  <path fill="hsl(var(--contrast))" d="M3.606 5.648c-0.592 0.163-1.066 0.666-1.171 1.248-0.026 0.134-0.035 2.944-0.035 9.552 0 8 0.006 9.386 0.048 9.533 0.157 0.589 0.65 1.066 1.226 1.184 0.122 0.026 3.654 0.035 12.352 0.035 13.277 0 12.31 0.013 12.707-0.179 0.234-0.115 0.573-0.454 0.685-0.685 0.195-0.406 0.182 0.333 0.182-9.958v-9.398l-0.077-0.243c-0.176-0.55-0.586-0.941-1.155-1.091-0.237-0.064-24.531-0.061-24.762 0.003zM27.2 16.4v8.4h-22.4v-16.8h22.4v8.4z"></path>
  <path fill="hsl(var(--alert-light))" d="M9.088 11.264c-1.651 0.349-2.416 2.269-1.469 3.68 0.63 0.941 1.872 1.309 2.915 0.864 0.525-0.224 0.966-0.64 1.216-1.152 0.182-0.374 0.23-0.595 0.23-1.056 0-0.56-0.096-0.883-0.384-1.318-0.557-0.838-1.52-1.229-2.509-1.018z"></path>
  <path fill="hsla(var(--success), .75)" d="M19.056 14.704c-0.157 0.074-0.163 0.080-0.861 0.989-0.314 0.406-2.259 2.909-2.442 3.139-0.224 0.285-1.152 1.472-1.283 1.648-0.099 0.131-0.32 0.413-0.643 0.826l-0.234 0.294-0.099-0.125c-0.138-0.17-0.672-0.813-1.318-1.587-0.294-0.352-0.589-0.704-0.653-0.781-0.064-0.080-0.16-0.195-0.214-0.256-0.054-0.064-0.39-0.467-0.749-0.893-0.355-0.429-0.694-0.806-0.749-0.842-0.122-0.074-0.339-0.080-0.47-0.013-0.051 0.029-0.915 0.87-1.917 1.875l-1.824 1.824v3.197h20.8v-2.4l-3.427-3.427c-2.192-2.192-3.466-3.443-3.536-3.472-0.134-0.058-0.256-0.054-0.381 0.003z"></path>
</svg>
