<svg xmlns="http://www.w3.org/2000/svg" width="32" height="32"  viewBox="0 0 32 32">
  <path fill="hsl(var(--alert))" d="M20.672 5.014c-1.798 0.221-3.222 1.581-3.498 3.344-0.131 0.826-0.022 1.44 0.397 2.282 0.195 0.39 3.507 5.84 3.549 5.84 0.013 0 0.16-0.227 0.326-0.506 0.17-0.275 0.502-0.826 0.746-1.222s0.502-0.822 0.576-0.944c0.074-0.125 0.47-0.778 0.886-1.456 1.302-2.134 1.44-2.458 1.446-3.344 0.006-0.752-0.096-1.181-0.432-1.834-0.694-1.35-2.061-2.182-3.565-2.173-0.192 0.003-0.387 0.010-0.432 0.013zM21.414 7.587c0.282 0.061 0.506 0.186 0.714 0.394 0.576 0.589 0.576 1.437 0.003 2.019-0.65 0.656-1.696 0.55-2.211-0.227-0.378-0.566-0.298-1.302 0.192-1.792 0.346-0.349 0.826-0.493 1.302-0.394z"></path>
  <path fill="hsla(var(--success-dark), .25)" d="M4.8 13.872v4.403l1.12 1.12-1.123 1.123 0.013 2.291c0.010 2.083 0.016 2.314 0.067 2.486 0.246 0.832 0.854 1.44 1.709 1.702 0.173 0.054 0.778 0.058 10.4 0.064l10.214 0.010-0.010-7.814c-0.006-7.398-0.010-7.827-0.064-8.003-0.189-0.621-0.608-1.165-1.12-1.456-0.134-0.077-0.182-0.070-0.182 0.026 0 0.134-0.211 0.682-0.432 1.126-0.176 0.355-1.885 3.219-2.4 4.026-0.038 0.061-0.16 0.256-0.266 0.435l-0.195 0.323 0.064 0.173c0.118 0.31 0.147 0.573 0.096 0.877-0.125 0.72-0.71 1.254-1.44 1.315-0.925 0.077-1.731-0.666-1.731-1.594 0-0.182 0.077-0.534 0.147-0.672 0.045-0.086 0.035-0.109-0.31-0.672-0.195-0.323-0.41-0.672-0.477-0.778-0.147-0.24-1.2-1.965-1.555-2.544-0.557-0.918-0.848-1.606-0.957-2.25l-0.019-0.118h-11.549v4.4zM9.875 14.426l0.522 0.525-0.557 0.557c-0.307 0.307-0.563 0.557-0.57 0.557-0.010 0-0.909-0.89-1.046-1.037l-0.077-0.086 0.557-0.557c0.464-0.464 0.563-0.55 0.605-0.518 0.026 0.022 0.282 0.272 0.566 0.56zM7.635 16.595l0.563 0.563-0.093 0.096c-0.256 0.272-1.014 1.018-1.030 1.018-0.029 0-1.088-1.066-1.098-1.104-0.006-0.022 1.043-1.117 1.088-1.133 0.003-0.003 0.259 0.25 0.57 0.56zM12.093 16.643c0.301 0.301 0.547 0.557 0.547 0.566 0 0.013-0.25 0.272-0.554 0.576l-0.557 0.554-1.13-1.136 0.554-0.554c0.301-0.304 0.56-0.554 0.573-0.554 0.010 0 0.266 0.246 0.566 0.547zM18.797 18.797l0.56 0.56-0.56 0.56c-0.307 0.31-0.563 0.563-0.57 0.563-0.016 0-1.091-1.088-1.101-1.114-0.006-0.026 1.072-1.126 1.104-1.126 0.006 0 0.262 0.25 0.566 0.557zM14.365 18.915c0.301 0.301 0.547 0.554 0.547 0.557 0 0.006-0.253 0.262-0.56 0.57l-0.56 0.56-0.506-0.506c-0.275-0.278-0.528-0.534-0.56-0.57-0.054-0.061-0.045-0.074 0.496-0.611 0.304-0.301 0.563-0.547 0.576-0.547 0.010 0 0.266 0.246 0.566 0.547zM16.538 21.066l0.557 0.557-0.566 0.566-0.566 0.563-0.557-0.557c-0.307-0.304-0.557-0.563-0.557-0.57 0-0.026 1.091-1.114 1.117-1.114 0.010 0 0.269 0.25 0.573 0.554z"></path>
</svg>
