<svg xmlns="http://www.w3.org/2000/svg" style="position:absolute"><symbol viewBox="0 0 16 16" id="close"><path fill="currentColor" d="m10.19 7.95 5.237 5.237a1.481 1.481 0 1 1-2.095 2.094l-5.236-5.236-5.237 5.236a1.481 1.481 0 0 1-2.094-2.094L6 7.95.765 2.714A1.481 1.481 0 0 1 2.859.619l5.237 5.236L13.332.62a1.481 1.481 0 1 1 2.095 2.095z"/></symbol><symbol viewBox="0 0 56 64" id="ffoodd"><path fill="currentColor" d="M29.304 63.719c-.181-2.983-.138-5.975-.193-8.963-1.652-.136-3.417.177-4.974-.415.777-3.18 2.302-6.219 3.404-9.329 1.43-2.144.804-3.533-1.813-2.955-5.018-.12-10.309-.08-14.772-2.741C3.488 35.4-.954 26.656.174 18.314 1.261 8.006 11.063-.638 21.494.037c4.643-.113 9.168 1.501 12.845 4.301.826.869 1.796-.488 2.692-.684 4.21-2.388 9.381-2.42 13.973-1.295 3.195.925 5.821 4.137 4.78 7.561-.332 3.417-3.897 4.85-6.924 4.377-3.64.088-3.61-4.298-5.588-6.233-1.992-.705-6.685-.209-3.533 2.522 1.883 3.44 2.961 7.326 2.632 11.265.13 5.405-3.235 10-4.73 14.979 1.065 1.154 6.09-.838 3.69 1.997-2.452 3.558-5.063 7.014-7.367 10.668 1.493.548 5.853-.49 3.564 2.234-2.558 4.08-4.962 8.287-7.804 12.171-.15.238-.416 0-.42-.181zM27.837 25.62c4.98-1.345 7.598-7.836 4.654-12.174-2.223-3.726-7.366-5.224-11.167-3.031-2.925 1.406-4.74 4.734-4.288 7.956-.016 4.137 4.11 7.797 8.201 7.542.872-.012 1.755-.063 2.6-.293z"/></symbol><symbol viewBox="0 0 32 32" id="frame"><path fill="hsla(var(--secondary-light), .1)" d="M3 6h27v21H3z"/><path fill="hsl(var(--contrast))" d="M3.606 5.648c-.592.163-1.066.666-1.171 1.248-.026.134-.035 2.944-.035 9.552 0 8 .006 9.386.048 9.533.157.589.65 1.066 1.226 1.184.122.026 3.654.035 12.352.035 13.277 0 12.31.013 12.707-.179.234-.115.573-.454.685-.685.195-.406.182.333.182-9.958V6.98l-.077-.243a1.606 1.606 0 0 0-1.155-1.091c-.237-.064-24.531-.061-24.762.003zM27.2 16.4v8.4H4.8V8h22.4v8.4z"/><path fill="hsl(var(--alert-light))" d="M9.088 11.264c-1.651.349-2.416 2.269-1.469 3.68a2.402 2.402 0 0 0 2.915.864c.525-.224.966-.64 1.216-1.152.182-.374.23-.595.23-1.056 0-.56-.096-.883-.384-1.318a2.367 2.367 0 0 0-2.509-1.018z"/><path fill="hsla(var(--success), .75)" d="M19.056 14.704c-.157.074-.163.08-.861.989a1126.4 1126.4 0 0 1-2.442 3.139c-.224.285-1.152 1.472-1.283 1.648-.099.131-.32.413-.643.826l-.234.294-.099-.125c-.138-.17-.672-.813-1.318-1.587l-.653-.781a8.205 8.205 0 0 0-.214-.256c-.054-.064-.39-.467-.749-.893-.355-.429-.694-.806-.749-.842a.548.548 0 0 0-.47-.013c-.051.029-.915.87-1.917 1.875L5.6 20.802v3.197h20.8v-2.4l-3.427-3.427c-2.192-2.192-3.466-3.443-3.536-3.472a.442.442 0 0 0-.381.003z"/></symbol><symbol viewBox="0 0 32 32" id="map"><path fill="hsl(var(--alert))" d="M20.672 5.014c-1.798.221-3.222 1.581-3.498 3.344-.131.826-.022 1.44.397 2.282.195.39 3.507 5.84 3.549 5.84.013 0 .16-.227.326-.506.17-.275.502-.826.746-1.222s.502-.822.576-.944c.074-.125.47-.778.886-1.456 1.302-2.134 1.44-2.458 1.446-3.344.006-.752-.096-1.181-.432-1.834a3.97 3.97 0 0 0-3.565-2.173c-.192.003-.387.01-.432.013zm.742 2.573c.282.061.506.186.714.394.576.589.576 1.437.003 2.019-.65.656-1.696.55-2.211-.227a1.406 1.406 0 0 1 .192-1.792 1.41 1.41 0 0 1 1.302-.394z"/><path fill="hsla(var(--success-dark), .25)" d="M4.8 13.872v4.403l1.12 1.12-1.123 1.123.013 2.291c.01 2.083.016 2.314.067 2.486.246.832.854 1.44 1.709 1.702.173.054.778.058 10.4.064l10.214.01-.01-7.814c-.006-7.398-.01-7.827-.064-8.003-.189-.621-.608-1.165-1.12-1.456-.134-.077-.182-.07-.182.026 0 .134-.211.682-.432 1.126-.176.355-1.885 3.219-2.4 4.026-.038.061-.16.256-.266.435l-.195.323.064.173c.118.31.147.573.096.877a1.585 1.585 0 0 1-1.44 1.315 1.607 1.607 0 0 1-1.731-1.594c0-.182.077-.534.147-.672.045-.086.035-.109-.31-.672a61.78 61.78 0 0 0-.477-.778l-1.555-2.544c-.557-.918-.848-1.606-.957-2.25l-.019-.118H4.8v4.4zm5.075.554.522.525-.557.557a17.9 17.9 0 0 1-.57.557c-.01 0-.909-.89-1.046-1.037l-.077-.086.557-.557c.464-.464.563-.55.605-.518.026.022.282.272.566.56zm-2.24 2.169.563.563-.093.096a27.26 27.26 0 0 1-1.03 1.018c-.029 0-1.088-1.066-1.098-1.104-.006-.022 1.043-1.117 1.088-1.133.003-.003.259.25.57.56zm4.458.048c.301.301.547.557.547.566 0 .013-.25.272-.554.576l-.557.554-1.13-1.136.554-.554c.301-.304.56-.554.573-.554.01 0 .266.246.566.547zm6.704 2.154.56.56-.56.56c-.307.31-.563.563-.57.563-.016 0-1.091-1.088-1.101-1.114-.006-.026 1.072-1.126 1.104-1.126.006 0 .262.25.566.557zm-4.432.118c.301.301.547.554.547.557 0 .006-.253.262-.56.57l-.56.56-.506-.506a50.987 50.987 0 0 1-.56-.57c-.054-.061-.045-.074.496-.611.304-.301.563-.547.576-.547.01 0 .266.246.566.547zm2.173 2.151.557.557-.566.566-.566.563-.557-.557a14.801 14.801 0 0 1-.557-.57c0-.026 1.091-1.114 1.117-1.114.01 0 .269.25.573.554z"/></symbol></svg>